<svg width="460" height="394" viewBox="0 0 460 394" fill="none" xmlns="http://www.w3.org/2000/svg">
<circle cx="268" cy="192" r="192" fill="#F2F8FC"/>
<g clip-path="url(#clip0)">
<path d="M18.3164 373.352C18.3164 373.352 17.6709 380.181 16.013 381.436C14.3552 382.691 12.1456 387.33 13.249 389.838C13.5938 390.621 14.2862 391.073 15.0724 391.327C17.4006 392.075 19.8805 390.814 20.8708 388.494C21.4252 387.198 21.9107 385.466 22.0072 383.287C22.2555 377.737 23.9134 374.915 23.9134 374.915L18.3164 373.352Z" fill="#F7A491"/>
<path d="M43.7911 376.146C43.7911 376.146 44.3124 383.039 43.8904 385.276C43.6642 386.475 42.398 388.944 42.9773 390.072C43.5566 391.2 44.2214 391.482 44.2214 391.482L59.2607 391.733C60.08 391.746 59.5393 391.198 58.8773 390.693C57.796 389.865 56.9243 389.319 53.4706 387.579C53.2444 387.466 52.4252 386.922 52.13 386.735C51.3797 386.257 50.6266 385.507 49.9784 384.757C48.8998 383.505 48.8033 377.437 48.8033 377.437L43.7911 376.146Z" fill="#F7A491"/>
<path d="M55.545 284.541C55.545 284.541 57.4401 295.731 56.196 303.065C54.9519 310.4 48.9853 378.396 48.9853 378.396L42.3539 378.785C42.3539 378.785 40.9636 350.383 41.2119 346.434C41.4601 342.484 43.4297 335.872 43.4297 335.872L42.7704 312.94L51.1397 282.814L55.545 284.541Z" fill="#201D93"/>
<path d="M36.0535 282.188C36.0535 282.188 30.8317 290.369 29.5876 297.141C28.3435 303.912 30.5006 324.723 28.109 333.594C26.8153 338.399 21.9079 345.816 21.1604 352.022C20.4156 358.228 17.4888 374.488 17.4888 374.488L24.1175 375.856L39.5237 335.252L51.6086 298.55L54.7037 279.648L36.0535 282.188Z" fill="#2D24A3"/>
<path d="M21.3231 387.27C17.7095 387.957 15.3069 385.756 14.0545 384.109C13.1359 385.973 12.5732 388.304 13.249 389.835C13.8449 391.184 15.4641 391.553 16.8323 391.606C18.2805 391.661 19.6322 390.872 20.3522 389.559C20.6887 388.952 21.0335 388.188 21.3231 387.27Z" fill="#184655"/>
<path d="M52.1272 386.737C48.1495 387.799 45.2089 387.077 43.5649 386.387C43.1401 387.639 42.5773 389.209 42.878 390.114C43.2421 391.222 43.7635 391.564 44.2214 391.575C47.8543 391.675 57.5284 391.719 60.2979 391.758C60.6841 391.763 60.8993 391.291 60.6482 390.982C59.9641 390.13 52.4252 386.928 52.1272 386.737Z" fill="#184655"/>
<path d="M56.1767 223.382C55.0016 215.725 48.0723 210.216 40.8257 213.932C39.1954 214.768 36.9886 216.464 35.8632 217.909C32.7681 221.881 32.0178 226.805 28.7352 230.625C25.905 233.918 18.355 233.298 14.8269 235.83C11.3015 238.362 8.82993 242.905 8.82993 248.338C8.82993 254.415 10.2009 260.864 14.9096 264.706C19.6184 268.548 26.3105 269.505 32.164 267.878C38.0175 266.251 43.0408 262.262 46.6572 257.377C50.2735 252.492 52.8279 247.139 54.6292 241.338C56.6429 234.859 56.9353 228.33 56.1767 223.382Z" fill="#184655"/>
<path d="M29.6621 233.767C29.6621 233.767 20.7659 217.89 18.6005 214.517C16.4351 211.14 10.7995 197.73 10.5954 197.203C10.394 196.673 14.4793 190.329 13.5663 190.111C12.656 189.893 11.6464 193.457 10.6726 193.032C9.69886 192.608 6.85761 184.029 6.30315 184.454C5.26596 185.251 7.83411 189.775 7.28242 190.062C6.73072 190.346 5.05355 185.083 3.96946 185.237C2.88262 185.392 6.03558 190.062 5.72938 190.475C5.42595 190.889 2.15438 186.487 1.56406 187.425C1.24407 187.935 4.57082 191.264 3.93085 191.579C3.29088 191.89 0.331011 189.742 0.0165427 190.36C-0.297926 190.98 2.75573 191.83 3.66879 193.501C4.58185 195.173 6.13488 195.895 6.78037 198.99C7.42586 202.085 8.39133 213.289 11.696 218.877C15.0034 224.466 22.2721 236.837 22.2721 236.837L29.6621 233.767Z" fill="#F79C8D"/>
<path d="M54.7037 252.622L47.573 256.718C47.573 256.718 61.1062 274.531 61.8841 275.345L67.5803 270.308L54.7037 252.622Z" fill="#F48C7F"/>
<path d="M48.784 241.972C48.784 241.972 54.3175 243.026 61.2165 260.108L51.7328 265.183L44.9745 254.688L48.784 241.972Z" fill="#2D24A3"/>
<path d="M66.5542 243.101C66.5542 243.101 65.3046 242.742 63.2385 244.518C60.6868 246.714 60.5434 263.564 61.2137 269.456C61.884 275.347 61.884 275.347 61.884 275.347C61.884 275.347 67.081 273.521 68.3058 267.197C69.5306 260.872 69.9968 244.422 69.9968 244.422L66.5542 243.101Z" fill="#F48C7F"/>
<path d="M39.9209 240.229C39.9209 240.229 32.9502 239.785 30.1917 242.786C27.4332 245.784 36.31 269.514 36.8093 273.331C37.3114 277.149 32.6964 284.761 32.6964 284.761C32.6964 284.761 51.8817 293.731 56.5601 290.639C56.5601 290.639 55.8098 260.045 55.3078 257.319C54.8057 254.591 50.6266 243.503 49.6253 242.414C48.624 241.319 39.9209 240.229 39.9209 240.229Z" fill="#8DCFFF"/>
<path d="M42.2408 230.934C42.2408 230.934 42.2049 231.138 42.1387 231.488C41.827 233.16 40.6298 238.709 39.8216 240.235C38.8451 242.077 43.1677 247.955 47.3275 247.238C48.566 247.026 46.282 241.837 46.3896 241.288C46.5992 240.237 46.8861 238.8 47.1758 237.33C47.3413 236.5 47.5068 235.659 47.664 234.867C48.1081 232.619 48.4723 230.782 48.4723 230.782L42.2408 230.934Z" fill="#F7A491"/>
<path d="M42.1415 231.488C42.2049 231.141 42.2436 230.934 42.2436 230.934L48.4778 230.779C48.4778 230.779 48.1136 232.619 47.6695 234.864C47.515 235.65 47.3495 236.489 47.184 237.314C46.2213 237.173 45.2172 236.704 44.2076 235.824C43.1097 234.864 42.387 233.709 41.9539 232.478C42.0284 232.084 42.0918 231.745 42.1415 231.488Z" fill="#F47458"/>
<path d="M46.4365 216.795C46.4365 216.795 43.4987 216.456 41.656 218.833C39.8133 221.211 37.83 228.562 42.4036 232.558C46.9799 236.555 51.4983 232.032 52.1686 227.235C52.8417 222.436 53.101 216.621 46.4365 216.795Z" fill="#F7A491"/>
<path d="M53.5258 227.16C52.9796 228.22 52.0638 228.807 51.479 228.471C50.8942 228.134 50.8639 227.003 51.41 225.944C51.9562 224.885 52.8721 224.297 53.4569 224.634C54.0389 224.97 54.0692 226.101 53.5258 227.16Z" fill="#F7A491"/>
<path d="M46.7647 216.009C46.7647 216.009 42.8394 222.998 40.0312 223.321C37.2231 223.644 36.8535 227.359 36.8535 227.359C36.8535 227.359 37.8575 218.8 40.6381 217.151C43.4187 215.498 46.7647 216.009 46.7647 216.009Z" fill="#184655"/>
<path d="M40.7678 225.078C40.9967 226.319 40.5361 227.458 39.7416 227.621C38.9472 227.784 38.1169 226.909 37.8879 225.668C37.659 224.427 38.1196 223.288 38.9141 223.125C39.7113 222.962 40.5388 223.837 40.7678 225.078Z" fill="#F7A491"/>
<path d="M27.2015 228.622C27.2015 228.622 37.041 239.181 38.5058 243.437C39.9678 247.693 37.0797 253.781 33.0909 254.045C29.1021 254.31 20.2225 235.303 20.2225 235.303L27.2015 228.622Z" fill="#2D24A3"/>
<path d="M75.7096 244.518H68.9044C65.0922 244.518 62.0027 247.751 62.0027 251.737V354H82.6141V251.737C82.6114 247.751 79.5218 244.518 75.7096 244.518Z" fill="#D1A107"/>
<path d="M76.3054 244.518H68.3058V354.002H76.3054V244.518Z" fill="#FFC900"/>
<path d="M72.0574 392.033C73.4477 392.033 74.6504 391.027 74.9566 389.609L77.2847 378.78H66.9818L69.1499 389.567C69.4396 391.005 70.6533 392.033 72.0574 392.033Z" fill="#515151"/>
<path d="M66.9817 378.777L77.2847 378.78L82.6114 354H61.9999L66.9817 378.777Z" fill="#FAE0B2"/>
<path d="M78.5867 244.518H66.0246C63.8012 244.518 61.9999 246.402 61.9999 248.727V263.716H82.6114V248.727C82.6114 246.402 80.8101 244.518 78.5867 244.518Z" fill="#F47458"/>
<path d="M60.9434 268.237H83.6734C83.7754 268.237 83.8582 268.154 83.8582 268.052V263.901C83.8582 263.799 83.7754 263.716 83.6734 263.716H60.9434C60.8413 263.716 60.7586 263.799 60.7586 263.901V268.052C60.7558 268.154 60.8386 268.237 60.9434 268.237Z" fill="#86B1F2"/>
<path d="M206.73 80.095L203.45 80.8921L201.246 76.8623L196.27 77.5574L193.997 74.755L192.204 75.6652L195.241 79.4137L199.958 78.7545L202.25 82.9443L207.185 81.7472L206.73 80.095Z" fill="#50BFA5"/>
<path d="M248.447 80.5528L246.422 75.7672L241.332 74.7218C240.753 74.6032 240.563 73.8695 241.01 73.4834L244.935 70.0797L244.356 64.9162C244.289 64.3287 244.927 63.9205 245.434 64.2266L249.884 66.9077L254.617 64.7617C255.158 64.5162 255.743 64.9962 255.608 65.5727L254.432 70.6341L257.936 74.4708C258.336 74.9066 258.06 75.6128 257.47 75.6624L252.292 76.1093L249.724 80.6273C249.434 81.1431 248.678 81.099 248.447 80.5528Z" fill="#F7CC7F"/>
<path d="M374.592 394H115.222C102.792 394 92.7157 383.924 92.7157 371.495V184.214C92.7157 171.785 102.792 161.709 115.222 161.709H374.59C387.019 161.709 397.096 171.785 397.096 184.214V371.495C397.096 383.924 387.022 394 374.592 394Z" fill="#466EB6"/>
<path d="M380.327 387.002H111.247C104.696 387.002 99.3857 381.693 99.3857 375.142V179.029C99.3857 172.478 104.696 167.168 111.247 167.168H380.327C386.879 167.168 392.189 172.478 392.189 179.029V375.142C392.189 381.69 386.879 387.002 380.327 387.002Z" fill="#184655"/>
<path d="M76.5316 380.005V387.888C76.5316 391.264 83.7837 393.997 92.7295 393.997H403.799C412.745 393.997 419.997 391.261 419.997 387.888V380.005H76.5316Z" fill="#355389"/>
<path d="M372.755 174.77H119.57V363.403H372.755V174.77Z" fill="#F2F8FC"/>
<path d="M359.537 189.72H128.226V354.471H359.537V272.095V189.72Z" fill="#F47458"/>
<path d="M344.696 177.285H127.611V354.471H344.696V177.285Z" fill="#86B1F2"/>
<path d="M337.778 185.276H131.873V199.699H337.778V185.276Z" fill="#9BC1F9"/>
<path d="M308.281 60.8009H128.226V338.424H308.281V60.8009Z" fill="white" stroke="#C6C3C2" stroke-width="4" stroke-miterlimit="10"/>
<path d="M299.131 181.58H132.973V196.133H299.131V181.58Z" fill="#FFC900"/>
<path d="M221.43 76.9312H144.981V171.639H221.43V76.9312Z" fill="#2D24A3"/>
<path d="M290.174 52.6171H132.195C130.951 52.6171 129.944 51.6103 129.944 50.3663V37.2507C129.944 36.0068 130.951 35 132.195 35H290.174C291.418 35 292.425 36.0068 292.425 37.2507V50.3663C292.425 51.6103 291.416 52.6171 290.174 52.6171Z" fill="#9BC1F9"/>
<path d="M254.3 50.2808H140.336C138.247 50.2808 136.548 48.5817 136.548 46.4937V41.0599C136.548 38.9719 138.247 37.2728 140.336 37.2728H254.3C256.388 37.2728 258.088 38.9719 258.088 41.0599V46.4937C258.088 48.5817 256.388 50.2808 254.3 50.2808ZM140.336 38.321C138.824 38.321 137.596 39.5512 137.596 41.0599V46.4937C137.596 48.0053 138.827 49.2327 140.336 49.2327H254.3C255.812 49.2327 257.039 48.0025 257.039 46.4937V41.0599C257.039 39.5484 255.809 38.321 254.3 38.321H140.336Z" fill="#466EB6"/>
<path d="M274.247 45.5393C271.731 45.5393 269.684 43.4927 269.684 40.9772C269.684 38.4616 271.731 36.415 274.247 36.415C276.762 36.415 278.809 38.4616 278.809 40.9772C278.809 43.4927 276.762 45.5393 274.247 45.5393ZM274.247 37.4631C272.31 37.4631 270.732 39.0381 270.732 40.9772C270.732 42.9135 272.308 44.4912 274.247 44.4912C276.183 44.4912 277.761 42.9162 277.761 40.9772C277.761 39.0409 276.183 37.4631 274.247 37.4631Z" fill="#466EB6"/>
<path d="M280.224 50.0712L276.145 44.596C275.971 44.3643 276.02 44.0361 276.252 43.8651C276.47 43.7024 276.774 43.7355 276.953 43.9341L276.986 43.9727L281.576 49.0672C281.888 49.412 281.86 49.9471 281.515 50.2588C281.171 50.5705 280.635 50.5429 280.324 50.1953C280.307 50.176 280.291 50.1567 280.274 50.1374L280.224 50.0712Z" fill="#466EB6"/>
<path d="M296.069 287.787C298.728 287.037 298.8 287.5 299.139 287.396C299.539 287.271 302.756 283.004 302.756 283.004C302.756 283.004 312.333 270.496 312.824 269.801L315.845 253.615L324.917 253.546C324.917 253.546 321.127 271.025 320.758 271.889C320.388 272.755 305.208 288.03 303.923 289.42C303.923 289.42 303.092 291.679 302.519 293.075C301.945 294.473 300.72 295.494 300.491 295.858C300.458 295.91 299.619 297.074 298.157 298.205C296.899 299.182 297.564 297.662 297.564 297.662C297.564 297.662 299.514 295.422 299.286 295.29C299.109 295.188 298.127 296.476 296.748 297.571C296.392 297.852 296.042 298.128 295.716 298.379C294.864 299.038 294.138 298.688 294.902 297.852C295.173 297.557 295.633 297.077 296.017 296.785C296.433 296.468 296.693 296.04 296.993 295.72C297.592 295.083 298.036 294.628 297.992 294.617C297.934 294.6 297.95 294.388 297.564 294.675C297.098 295.019 296.301 295.977 295.57 296.429C295.156 296.685 294.329 297.276 294.329 297.276C294.329 297.276 292.878 297.927 292.8 297.855C292.384 297.466 293.214 296.743 293.832 296.47C294.111 296.095 295.004 295.499 295.004 295.499C295.004 295.499 296.483 293.883 296.224 293.66C296.113 293.563 295.071 294.44 293.89 295.133C292.795 295.775 291.556 296.244 291.369 296.043C291.049 295.704 292.174 294.859 292.174 294.859C292.174 294.859 292.999 294.311 293.255 294.106C293.556 293.866 294.395 293.083 294.395 293.083C294.395 293.083 297.164 290.206 296.902 290.01C296.64 289.815 295.779 289.553 295.537 289.668C295.294 289.784 294.991 290.228 294.745 290.344C294.502 290.46 294.061 290.402 293.857 290.115C293.655 289.828 294.557 288.819 294.557 288.819C294.557 288.819 295.302 288.002 296.069 287.787Z" fill="#F48C7F"/>
<path d="M310.893 369.515C310.893 369.515 310.81 375.1 310.813 375.111C310.932 375.82 311.806 377.572 311.806 378.217C311.806 380.639 300.803 376.162 303.269 375.089C303.492 374.993 304.662 374.256 304.734 373.434C304.847 372.166 305.134 369.595 305.134 369.595L310.893 369.515Z" fill="#F7A491"/>
<path d="M303.294 375.064C303.294 375.064 305.876 375.806 307.2 375.991C308.524 376.176 310.267 374.618 311.202 375.037C312.231 375.5 312.129 380.065 312.129 380.065C312.129 380.065 298.919 380.253 294.444 379.999C292.828 379.908 298.011 376.791 303.294 375.064Z" fill="#B75742"/>
<path d="M335.378 369.515C335.378 369.515 335.7 375.1 335.703 375.111C335.822 375.82 336.288 377.572 336.288 378.217C336.288 380.639 325.284 376.162 327.75 375.089C327.974 374.993 329.488 373.71 329.563 372.885C329.676 371.617 329.615 369.595 329.615 369.595L335.378 369.515Z" fill="#F7A491"/>
<path d="M327.778 375.064C327.778 375.064 330.363 375.806 331.684 375.991C333.008 376.176 334.751 374.618 335.687 375.037C336.716 375.5 336.691 379.999 336.691 379.999C336.691 379.999 321.936 380.156 318.338 379.999C316.722 379.93 322.496 376.791 327.778 375.064Z" fill="#B75742"/>
<path d="M317.941 288.907L313.288 290.871L303.503 336.622L303.901 370.922L311.746 371.101C311.746 371.101 315.395 341.099 315.395 338.774C315.395 336.449 332.296 298.084 332.296 298.084L317.941 288.907Z" fill="#355389"/>
<path d="M321.53 291.425C321.53 291.425 324.956 326.676 324.956 332.617C324.956 338.559 327.734 371.815 327.734 371.815L335.598 371.771C335.598 371.771 336.167 361.634 337.008 346.72C337.14 344.384 336.837 339.673 337.008 337.254C338.23 319.863 340.652 303.493 339.496 297.003C339.311 295.957 338.961 293.227 338.28 292.537C333.132 287.324 321.53 291.425 321.53 291.425Z" fill="#466EB6"/>
<path d="M311.939 263.605L321.453 262.982C321.453 262.982 321.922 254.655 321.922 250.683C321.922 245.864 323.422 238.759 322.835 238.891C321.188 239.267 318.347 240.751 317.028 242.549C312.463 248.777 311.939 263.605 311.939 263.605Z" fill="#FFC900"/>
<path d="M334.481 238.707C334.481 238.707 339.907 239.446 341.336 240.472C342.944 241.628 344.729 244.215 344.729 244.215C344.729 244.215 338.067 275.044 338.056 280.232C338.048 284.246 339.499 294.101 339.499 294.101C339.499 294.101 319.367 295.345 311.743 292.399C311.743 292.399 314.151 280.679 314.151 277.601C314.151 274.523 317.031 246.537 317.687 244.582C318.283 242.808 319.37 239.622 323.047 238.836C326.724 238.053 334.481 238.707 334.481 238.707Z" fill="#FCA70C"/>
<path d="M333 230.407L334.343 239.016C334.343 239.016 329.439 249.265 326.509 248.377C324.051 247.632 325.563 238.56 325.563 238.56C325.563 238.56 326.901 233.689 326.501 231.251C326.101 228.815 333 230.407 333 230.407Z" fill="#F7A491"/>
<path d="M326.504 231.254C326.101 228.815 333 230.407 333 230.407L333.11 231.121C332.909 231.599 332.661 232.007 332.363 232.321C330.821 233.935 328.413 234.903 326.33 234.975C326.539 233.662 326.666 232.252 326.504 231.254Z" fill="#F47458"/>
<path d="M334.134 218.229C334.33 218.16 335.698 228.035 333.102 230.752C330.506 233.469 325.447 234.357 323.632 232.219C321.627 229.853 321.726 219.239 325.762 216.445C329.797 213.648 334.134 218.229 334.134 218.229Z" fill="#F7A491"/>
<path d="M327.298 211.16C330.418 211.778 332.44 213.634 333.182 214.423C334.597 214.585 336.525 215.347 338.511 218.549C340.955 222.485 339.151 226.846 336.305 228.986C333.458 231.127 333.496 233.587 333.496 233.587L333.05 232.321C332.719 231.353 332.581 230.327 332.694 229.309C332.76 228.7 332.895 228.04 333.154 227.5C333.838 226.071 331.684 225.122 331.08 223.933C330.614 223.018 330.592 220.924 329.861 219.41L328.986 218.254C328.986 218.254 326.967 216.726 324.992 217.156C323.011 217.586 323.296 210.365 327.298 211.16Z" fill="#13375B"/>
<path d="M331.21 225.688C331.188 226.893 331.753 227.878 332.467 227.891C333.182 227.902 333.78 226.937 333.8 225.732C333.819 224.526 333.256 223.542 332.542 223.528C331.828 223.517 331.232 224.482 331.21 225.688Z" fill="#F7A491"/>
<path d="M320.645 270.068L320.515 270.802C320.449 271.18 320.082 271.433 319.696 271.367L304.135 268.728C303.749 268.661 303.489 268.303 303.556 267.925L303.685 267.188C303.752 266.811 304.118 266.557 304.505 266.623L320.065 269.263C320.454 269.329 320.711 269.69 320.645 270.068Z" fill="#13375B"/>
<path d="M342.704 242.679C340.878 242.626 339.264 254.415 340.42 255.579C341.579 256.743 341.799 271.262 341.799 271.262L324.578 270.843L324.575 270.849C324.239 270.628 320.631 268.256 320.115 267.737C319.574 267.194 316.945 267.464 316.247 268.215C315.552 268.962 317.795 268.35 318.413 268.758C319.031 269.166 317.949 270.187 317.949 270.187C317.949 270.187 313.585 270.807 312.733 269.922C311.884 269.039 309.611 267.542 309.299 268.427C309.139 268.882 310.311 270.264 310.973 270.846C310.148 270.242 309.161 269.599 308.824 269.712C308.206 269.916 308.463 270.686 308.8 270.915C309.136 271.141 312.601 273.731 313.141 273.913C313.671 274.09 321.729 274.286 323.122 274.586C323.122 274.586 345.832 279.65 347.126 279.333C348.26 279.057 349.391 271.938 349.391 266.488C349.388 261.032 348.409 242.838 342.704 242.679Z" fill="#F7A491"/>
<path d="M340.335 239.989C340.335 239.989 343.512 240.706 346.795 244.317C349.78 247.599 351.658 265.989 351.658 265.989L341.353 267.622L340.531 258.726L337.778 254.658L340.335 239.989Z" fill="#FFC900"/>
<path d="M171.344 138.449L164.82 158.209H156.431L177.777 95.3896H187.564L209.003 158.209H200.333L193.621 138.449H171.344ZM191.944 132.11L185.793 114.03C184.394 109.928 183.462 106.202 182.53 102.567H182.342C181.41 106.296 180.383 110.116 179.172 113.936L173.021 132.11H191.944Z" fill="white"/>
<path d="M96.5445 97.9134C89.6621 85.2557 76.4572 79.1378 62.6454 86.6459C48.8309 94.1566 46.7868 108.563 53.672 121.221C59.04 131.095 67.8286 130.759 78.1592 135.754C80.206 136.742 82.4983 143.737 82.4983 143.737L99.7664 134.347C99.7664 134.347 95.1432 128.618 95.4273 126.365C96.8507 114.979 101.915 107.788 96.5445 97.9134Z" fill="#FEC12F"/>
<path d="M87.4167 135.594C73.1415 128.693 60.9958 129.156 53.5755 115.511C51.9811 112.579 50.7342 109.573 49.8515 106.561C49.7439 111.388 51.068 116.43 53.6748 121.224C59.0428 131.098 67.8314 130.762 78.1619 135.757C80.2087 136.744 82.501 143.739 82.501 143.739L90.4207 139.434C89.4828 137.638 88.4263 136.082 87.4167 135.594Z" fill="#FFAB01"/>
<path d="M82.2059 143.897L83.4996 146.277C85.643 150.224 90.5807 151.683 94.5281 149.537L98.1003 147.595C102.045 145.449 103.507 140.512 101.361 136.565L100.067 134.185L82.2059 143.897Z" fill="#0450CF"/>
<path d="M65.2439 113.969L66.0328 108.911L70.714 110.993L71.5084 105.934L76.1868 108.02L76.984 102.956L81.6652 105.038L82.4652 99.9766L87.1573 102.054" stroke="#F4DA80" stroke-width="4.3551" stroke-miterlimit="10"/>
<path d="M70.1016 115.376L80.479 125.033L88.6276 140.018" stroke="#F4DA80" stroke-width="4.3551" stroke-miterlimit="10"/>
<path d="M83.4996 108.091L85.9601 122.051L94.1087 137.039" stroke="#F4DA80" stroke-width="4.3551" stroke-miterlimit="10"/>
<path d="M98.9029 136.417L87.7349 142.488L88.744 144.344L99.912 138.274L98.9029 136.417Z" fill="#69AEEB"/>
<path d="M97.599 141.462L89.5598 145.832L90.569 147.688L98.6081 143.318L97.599 141.462Z" fill="#69AEEB"/>
<path d="M212.374 209.684H141.489V212.787H212.374V209.684Z" fill="#E3E5FB"/>
<path d="M293.738 209.684H227.766V212.787H293.738V209.684Z" fill="#E3E5FB"/>
<path d="M212.374 217.531H141.489V220.634H212.374V217.531Z" fill="#E3E5FB"/>
<path d="M293.738 217.531H227.766V220.634H293.738V217.531Z" fill="#E3E5FB"/>
<path d="M212.374 225.381H141.489V228.484H212.374V225.381Z" fill="#E3E5FB"/>
<path d="M293.738 225.381H227.766V228.484H293.738V225.381Z" fill="#E3E5FB"/>
<path d="M212.374 233.229H141.489V236.332H212.374V233.229Z" fill="#E3E5FB"/>
<path d="M293.738 233.229H227.766V236.332H293.738V233.229Z" fill="#E3E5FB"/>
<path d="M293.738 241.079H227.766V244.182H293.738V241.079Z" fill="#E3E5FB"/>
<path d="M212.374 241.079H141.489V244.182H212.374V241.079Z" fill="#E3E5FB"/>
<path d="M212.374 248.926H141.489V252.029H212.374V248.926Z" fill="#E3E5FB"/>
<path d="M293.738 248.926H227.766V252.029H293.738V248.926Z" fill="#E3E5FB"/>
<path d="M212.374 256.776H141.489V259.879H212.374V256.776Z" fill="#E3E5FB"/>
<path d="M293.738 256.776H227.766V259.879H293.738V256.776Z" fill="#E3E5FB"/>
<path d="M212.374 264.623H141.489V267.726H212.374V264.623Z" fill="#E3E5FB"/>
<path d="M293.738 264.623H227.766V267.726H293.738V264.623Z" fill="#E3E5FB"/>
<path d="M212.374 272.473H141.489V275.576H212.374V272.473Z" fill="#E3E5FB"/>
<path d="M293.738 272.473H227.766V275.576H293.738V272.473Z" fill="#E3E5FB"/>
<path d="M212.374 280.321H141.489V283.424H212.374V280.321Z" fill="#E3E5FB"/>
<path d="M293.738 280.321H227.766V283.424H293.738V280.321Z" fill="#E3E5FB"/>
<path d="M293.738 288.171H227.766V291.274H293.738V288.171Z" fill="#E3E5FB"/>
<path d="M212.374 288.171H141.489V291.274H212.374V288.171Z" fill="#E3E5FB"/>
<path d="M212.374 296.018H141.489V299.121H212.374V296.018Z" fill="#E3E5FB"/>
<path d="M293.738 296.018H227.766V299.121H293.738V296.018Z" fill="#E3E5FB"/>
<path d="M293.738 303.865H227.766V306.968H293.738V303.865Z" fill="#E3E5FB"/>
<path d="M212.374 303.865H141.489V306.968H212.374V303.865Z" fill="#E3E5FB"/>
<path d="M292.174 76.181H236.229V79.284H292.174V76.181Z" fill="#E3E5FB"/>
<path d="M292.174 84.031H236.229V87.1341H292.174V84.031Z" fill="#E3E5FB"/>
<path d="M292.174 91.8783H236.229V94.9813H292.174V91.8783Z" fill="#E3E5FB"/>
<path d="M292.174 99.7283H236.229V102.831H292.174V99.7283Z" fill="#E3E5FB"/>
<path d="M292.174 107.576H236.229V110.679H292.174V107.576Z" fill="#E3E5FB"/>
<path d="M292.422 120.975H236.477V124.078H292.422V120.975Z" fill="#E3E5FB"/>
<path d="M292.422 128.823H236.477V131.926H292.422V128.823Z" fill="#E3E5FB"/>
<path d="M292.422 136.673H236.477V139.776H292.422V136.673Z" fill="#E3E5FB"/>
<path d="M292.422 144.52H236.477V147.623H292.422V144.52Z" fill="#E3E5FB"/>
<path d="M292.422 152.37H236.477V155.473H292.422V152.37Z" fill="#E3E5FB"/>
</g>
<defs>
<clipPath id="clip0">
<rect width="420" height="359" fill="white" transform="translate(0 35)"/>
</clipPath>
</defs>
</svg>
